# AST/ASF file generated using VICON BodyLanguage
# -----------------------------------------------
:version 1.10
:name VICON
:units
  mass 1.0
  length 0.45
  angle deg
:documentation
   .ast/.asf automatically generated from VICON data using
   VICON BodyBuilder and BodyLanguage model FoxedUp or BRILLIANT.MOD
:root
   order TX TY TZ RX RY RZ
   axis XYZ
   position 0 0 0  
   orientation 0 0 0 
:bonedata
  begin
     id 1 
     name lhipjoint
     direction 0.577973 -0.728611 0.367523 
     length 2.48544 
     axis 0 0 0  XYZ
  end
  begin
     id 2 
     name lfemur
     direction 0.34202 -0.939693 0  
     length 7.1921  
     axis 0 0 20  XYZ
    dof rx ry rz
    limits (-160.0 20.0)
           (-70.0 70.0)
           (-60.0 70.0)
  end
  begin
     id 3 
     name ltibia
     direction 0.34202 -0.939693 0   
     length 7.71059   
     axis 0 0 20   XYZ
    dof rx
    limits (-10.0 170.0)
  end
  begin
     id 4 
     name lfoot
     direction 0.089538 -0.246004 0.965124   
     length 2.19909   
     axis -90 7.62852e-016 20   XYZ
    dof rx rz
    limits (-45.0 90.0)
           (-70.0 20.0)
  end
  begin
     id 5 
     name ltoes
     direction 1.53544e-011 -4.21829e-011 1   
     length 1.10116   
     axis -90 7.62852e-016 20   XYZ
    dof rx
    limits (-90.0 20.0)
  end
  begin
     id 6 
     name rhipjoint
     direction -0.554414 -0.743062 0.374812   
     length 2.4371  
     axis 0 0 0  XYZ 
  end
  begin
     id 7 
     name rfemur
     direction -0.34202 -0.939693 0   
     length 7.47254   
     axis 0 0 -20   XYZ
    dof rx ry rz
    limits (-160.0 20.0)
           (-70.0 70.0)
           (-70.0 60.0)
  end
  begin
     id 8 
     name rtibia
     direction -0.34202 -0.939693 0   
     length 7.65855   
     axis 0 0 -20   XYZ
    dof rx
    limits (-10.0 170.0)
 end
 begin
     id 9 
     name rfoot
     direction -0.133779 -0.367555 0.92033   
     length 2.43006  
     axis -90 -7.62852e-016 -20   XYZ
    dof rx rz
    limits (-45.0 90.0)
           (-20.0 70.0)
  end
  begin
     id 10 
     name rtoes
     direction -1.53563e-011 -4.21889e-011 1   
     length 1.19625   
     axis -90 -7.62852e-016 -20   XYZ
    dof rx
    limits (-90.0 20.0)
  end
  begin
     id 11 
     name lowerback
     direction 0.0249066 0.998043 -0.0573585   
     length 2.08485   
     axis 0 0 0   XYZ
    dof rx ry rz
    limits (-20.0 45.0)
           (-30.0 30.0)
           (-30.0 30.0)
  end
  begin
     id 12 
     name upperback
     direction 0.0237884 0.999673 0.00943178   
     length 2.08515   
     axis 0 0 0   XYZ
    dof rx ry rz
    limits (-20.0 45.0)
           (-30.0 30.0)
           (-30.0 30.0)
  end
  begin
     id 13 
     name thorax
     direction 0.0106671 0.999301 0.0358174   
     length 2.09037   
     axis 0 0 0   XYZ
    dof rx ry rz
    limits (-20.0 45.0)
           (-30.0 30.0)
           (-30.0 30.0)
  end
  begin
     id 14 
     name lowerneck
     direction -0.0580016 0.987052 0.149546   
     length 1.84454   
     axis 0 0 0   XYZ
    dof rx ry rz
    limits (-20.0 45.0)
           (-30.0 30.0)
           (-30.0 30.0)
  end
  begin
     id 15 
     name upperneck
     direction 0.079456 0.981963 -0.171567   
     length 1.88141   
     axis 0 0 0   XYZ
    dof rx ry rz
    limits (-20.0 45.0)
           (-30.0 30.0)
           (-30.0 30.0)
  end
  begin
     id 16
     name head
     direction 0.0262167 0.9967 -0.0768276  
     length 1.89541  
     axis 0 0 0   XYZ
    dof rx ry rz
    limits (-20.0 45.0)
           (-30.0 30.0)
           (-30.0 30.0)
  end
  begin
     id 17 
     name lclavicle
     direction 0.946135 0.322134 -0.0325326  
     length 3.949  
     axis 0 0 0   XYZ
    dof ry rz
    limits (-20.0 10.0)
           (0.0 20.0)
  end
  begin
     id 18 
     name lhumerus
     direction 1 -4.48964e-011 1.94005e-028   
     length 5.10995   
     axis 180 -30 -90   XYZ
    dof rx ry rz
    limits (-60.0 90.0)
           (-90.0 90.0)
           (-90.0 90.0)
  end
  begin
     id 19
     name lradius
     direction 1 -4.48976e-011 2.87852e-027   
     length 3.21207   
     axis 180 -30 -90   XYZ
    dof rx
    limits (-10.0 170.0)
  end
  begin
     id 20
     name lwrist
     direction 1 -4.48963e-011 1.9975e-027   
     length 1.60604   
     axis 2.96054e-016 90 90   XYZ
    dof ry
    limits (-180.0 0.0)
 end
  begin
     id 21 
     name lhand
     direction 1 -4.48919e-011 4.00227e-027   
     length 0.63349   
     axis -2.5488e-015 90 90   XYZ
    dof rx rz
    limits (-90.0 90.0)
           (-45.0 45.0)
  end
  begin
     id 22 
     name lfingers
     direction 1 -4.49037e-011 7.9652e-027   
     length 0.510736   
     axis -5.0975e-015 90 90   XYZ
    dof rx
    limits (0.0 90.0)
  end
  begin
     id 23
     name lthumb
     direction 0.707107 -6.34922e-011 0.707107   
     length 0.733318   
     axis -90 45 -4.48553e-014   XYZ
    dof rx rz
    limits (-45.0 45.0)
           (-45.0 45.0)
  end
  begin
     id 24 
     name rclavicle
     direction -0.940085 0.328911 -0.0897654   
     length 3.93848  
     axis 0 0 0   XYZ 
    dof ry rz
    limits (-10.0 20.0)
           (-20.0 0.0)
  end
  begin
     id 25 
     name rhumerus
     direction -1 -4.48958e-011 3.02044e-027  
     length 5.25109   
     axis 180 30 90   XYZ
    dof rx ry rz
    limits (-90.0 60.0)
           (-90.0 90.0)
           (-90.0 90.0)
  end
  begin
     id 26 
     name rradius
     direction -1 -4.4897e-011 9.78352e-028   
     length 3.28364   
     axis 180 30 90   XYZ
    dof rx
    limits (-10.0 170.0)
  end
  begin
     id 27 
     name rwrist
     direction -1 -4.48943e-011 1.99918e-027   
     length 1.64182   
     axis 2.96054e-016 -90 -90   XYZ
    dof ry
    limits (-180.0 0.0)
  end
  begin
     id 28
     name rhand
     direction -1 -4.49024e-011 3.98478e-027   
     length 0.599745   
     axis -2.5488e-015 -90 -90   XYZ
    dof rx rz
    limits (-90.0 90.0)
           (-45.0 45.0)
  end
  begin
     id 29
     name rfingers
     direction -1 -4.48914e-011 8.00621e-027   
     length 0.48353   
     axis -5.0975e-015 -90 -90   XYZ
    dof rx
    limits (0.0 90.0)
  end
  begin
     id 30
     name rthumb
     direction -0.707107 -6.34992e-011 0.707107   
     length 0.694255   
     axis -90 -45 4.48553e-014   XYZ
    dof rx rz
    limits (-45.0 45.0)
           (-45.0 45.0)
  end
:hierarchy
  begin
    root lhipjoint rhipjoint lowerback
    lhipjoint lfemur
    lfemur ltibia
    ltibia lfoot
    lfoot ltoes
    rhipjoint rfemur
    rfemur rtibia
    rtibia rfoot
    rfoot rtoes
    lowerback upperback
    upperback thorax
    thorax lowerneck lclavicle rclavicle
    lowerneck upperneck
    upperneck head
    lclavicle lhumerus
    lhumerus lradius
    lradius lwrist
    lwrist lhand lthumb
    lhand lfingers
    rclavicle rhumerus
    rhumerus rradius
    rradius rwrist
    rwrist rhand rthumb
    rhand rfingers
  end

#!OML:ASF E:\CV Data\Top Level 1\Subject 1\Session 1\player.ASF
:FULLY-SPECIFIED
:DEGREES
246
root 7.61936 16.6156 -8.54676 -161.643 -136.858 -190.467
lowerback 19.8143 7.45383 8.71657
upperback 2.61725 11.8547 4.45354
thorax -7.29856 5.44688 -2.93639
lowerneck -17.7607 -4.04143 -10.6291
upperneck 1.11862 -3.64104 7.47297
head 3.4771 -1.51732 3.72887
rclavicle 5.96354e-014 1.11319e-014
rhumerus 55.947 12.574 -64.7125
rradius 77.4582
rwrist -35.3424
rhand -40.4102 -10.5667
rfingers 7.12502
rthumb -13.3632 -40.1182
lclavicle 5.96354e-014 1.11319e-014
lhumerus 1.98469 -9.85474 64.1248
lradius 106.458
lwrist 0.655948
lhand -2.70909 20.4526
lfingers 7.12502
lthumb 22.9931 49.1012
rfemur -14.5602 -27.2426 27.97
rtibia 42.6349
rfoot -30.1282 -28.7274
rtoes -4.50632
lfemur -51.7798 -2.18026 -2.33888
ltibia 29.717
lfoot 16.756 -8.5571
ltoes -3.79595
247
root 7.52627 16.6066 -8.46221 -161.694 -137.837 -190.271
lowerback 19.7932 7.53253 8.55641
upperback 2.48423 11.9372 4.36171
thorax -7.43857 5.48236 -2.97742
lowerneck -17.5949 -4.46465 -10.8323
upperneck 0.890046 -4.20231 7.94602
head 3.45023 -1.77384 3.8631
rclavicle -4.77083e-015 1.43125e-014
rhumerus 56.9328 11.7772 -64.6938
rradius 76.1089
rwrist -35.9115
rhand -40.636 -10.5145
rfingers 7.12502
rthumb -13.5808 -40.0515
lclavicle -4.77083e-015 1.43125e-014
lhumerus 4.07432 -9.68349 63.5172
lradius 105.503
lwrist 0.671327
lhand -2.52145 20.8089
lfingers 7.12502
lthumb 23.1732 49.435
rfemur -13.9417 -27.276 27.9005
rtibia 42.4353
rfoot -30.0554 -28.8632
rtoes -5.10338
lfemur -51.948 -2.39288 -2.49441
ltibia 29.7893
lfoot 16.6593 -9.27519
ltoes -4.30227
248
root 7.43467 16.5933 -8.37612 -161.771 -138.818 -190.017
lowerback 19.7967 7.60099 8.36743
upperback 2.35528 12.0002 4.24861
thorax -7.59027 5.50839 -3.02535
lowerneck -17.4309 -4.88633 -11.0366
upperneck 0.644377 -4.7604 8.42387
head 3.42242 -2.02942 3.99903
rclavicle -5.00937e-014 -7.63333e-014
rhumerus 57.8325 10.9517 -64.7483
rradius 74.7716
rwrist -36.1732
rhand -40.8422 -10.5307
rfingers 7.12502
rthumb -13.7796 -40.0544
lclavicle -5.00937e-014 -7.63333e-014
lhumerus 6.14406 -9.54889 62.948
lradius 104.523
lwrist 0.535436
lhand -2.30686 21.1318
lfingers 7.12502
lthumb 23.379 49.7319
rfemur -13.3851 -27.1887 27.7489
rtibia 42.4192
rfoot -29.9681 -28.8672
rtoes -5.84811
lfemur -52.1757 -2.592 -2.73064
ltibia 29.9825
lfoot 16.2786 -10.3461
ltoes -4.96824
249
root 7.345 16.5753 -8.28861 -161.885 -139.809 -189.704
lowerback 19.8408 7.65297 8.15384
upperback 2.23125 12.0378 4.1186
thorax -7.76189 5.5214 -3.07883
lowerneck -17.2678 -5.30285 -11.2569
upperneck 0.393619 -5.30863 8.91928
head 3.39748 -2.28032 4.14365
rclavicle 6.67916e-014 3.18055e-014
rhumerus 58.6397 10.1085 -64.8732
rradius 73.4518
rwrist -36.1182
rhand -41.0461 -10.5719
rfingers 7.12502
rthumb -13.9761 -40.0821
lclavicle 6.67916e-014 3.18055e-014
lhumerus 8.18224 -9.43018 62.4193
lradius 103.514
lwrist 0.247484
lhand -2.00184 21.3758
lfingers 7.12502
lthumb 23.6716 49.9383
rfemur -12.8985 -27.0255 27.5103
rtibia 42.6142
rfoot -29.8781 -28.7156
rtoes -6.66563
lfemur -52.4671 -2.7735 -3.07602
ltibia 30.3373
lfoot 15.5959 -11.6529
ltoes -5.65709
250
root 7.2582 16.5524 -8.20078 -162.035 -140.846 -189.327
lowerback 19.9106 7.6715 7.93607
upperback 2.12645 12.028 3.97075
thorax -7.9272 5.51218 -3.14076
lowerneck -17.1392 -5.71846 -11.4738
upperneck 0.135124 -5.85231 9.42203
head 3.37944 -2.52881 4.28958
rclavicle -6.04305e-014 4.29375e-014
rhumerus 59.3841 9.23995 -65.0923
rradius 72.1762
rwrist -35.7811
rhand -41.2419 -10.673
rfingers 7.12502
rthumb -14.1647 -40.1701
lclavicle -6.04305e-014 4.29375e-014
lhumerus 10.24 -9.30327 61.9194
lradius 102.462
lwrist -0.144473
lhand -1.5911 21.5272
lfingers 7.12502
lthumb 24.0655 50.0382
rfemur -12.5155 -26.8718 27.1998
rtibia 43.047
rfoot -29.7829 -28.4098
rtoes -7.48397
lfemur -52.8539 -2.93456 -3.56625
ltibia 30.8813
lfoot 14.6702 -13.0625
ltoes -6.20075
251
root 7.17438 16.5249 -8.1136 -162.223 -141.943 -188.896
lowerback 20.035 7.65349 7.7158
upperback 2.03042 11.9727 3.82262
thorax -8.11681 5.47935 -3.19911
lowerneck -17.0076 -6.12956 -11.7153
upperneck -0.128234 -6.38509 9.93343
head 3.36375 -2.77261 4.44264
rclavicle -5.96354e-014 -2.54444e-014
rhumerus 60.0447 8.3588 -65.4215
rradius 71.0016
rwrist -35.2897
rhand -41.3486 -10.9538
rfingers 7.12502
rthumb -14.2675 -40.4436
lclavicle -5.96354e-014 -2.54444e-014
lhumerus 12.2782 -9.17312 61.4755
lradius 101.377
lwrist -0.565035
lhand -1.0726 21.5824
lfingers 7.12502
lthumb 24.5626 50.0268
rfemur -12.2419 -26.7931 26.8316
rtibia 43.7219
rfoot -29.6525 -27.984
rtoes -8.23991
lfemur -53.3304 -3.09199 -4.20143
ltibia 31.6274
lfoot 13.58 -14.4183
ltoes -6.5519
252
root 7.09373 16.494 -8.02814 -162.442 -143.131 -188.419
lowerback 20.2125 7.59093 7.5079
upperback 1.94811 11.8639 3.68117
thorax -8.32368 5.41923 -3.25116
lowerneck -16.8933 -6.54105 -11.9557
upperneck -0.402454 -6.91423 10.4208
head 3.35013 -3.01618 4.58735
rclavicle 3.18055e-015 -2.70347e-014
rhumerus 60.636 7.46223 -65.8577
rradius 69.9463
rwrist -34.743
rhand -41.4355 -11.2477
rfingers 7.12502
rthumb -14.3513 -40.7317
lclavicle 3.18055e-015 -2.70347e-014
lhumerus 14.3155 -9.04817 61.0938
lradius 100.264
lwrist -0.895613
lhand -0.510911 21.5624
lfingers 7.12502
lthumb 25.1009 49.9325
rfemur -12.0892 -26.8497 26.4295
rtibia 44.6254
rfoot -29.4683 -27.4747
rtoes -8.82674
lfemur -53.9073 -3.26199 -4.9821
ltibia 32.5558
lfoot 12.4876 -15.5941
ltoes -6.46359
253
root 7.01565 16.4602 -7.94515 -162.692 -144.414 -187.912
lowerback 20.4501 7.48646 7.31905
upperback 1.88645 11.7072 3.55896
thorax -8.54477 5.33469 -3.28802
lowerneck -16.7905 -6.95009 -12.2122
upperneck -0.685574 -7.43359 10.8909
head 3.33824 -3.25621 4.72921
rclavicle 4.45278e-014 -3.97569e-014
rhumerus 61.1647 6.54842 -66.3958
rradius 69.0325
rwrist -34.2581
rhand -41.4806 -11.5027
rfingers 7.12502
rthumb -14.3947 -40.9836
lclavicle 4.45278e-014 -3.97569e-014
lhumerus 16.3568 -8.94288 60.7848
lradius 99.1335
lwrist -1.03523
lhand 0.0244159 21.4936
lfingers 7.12502
lthumb 25.6138 49.791
rfemur -12.0214 -27.0466 26.0033
rtibia 45.7158
rfoot -29.2223 -26.9162
rtoes -9.17252
lfemur -54.5533 -3.45886 -5.89347
ltibia 33.63
lfoot 11.467 -16.5374
ltoes -6.03963
254
root 6.9399 16.4243 -7.86544 -162.953 -145.814 -187.402
lowerback 20.7605 7.33892 7.16966
upperback 1.83217 11.5093 3.46521
thorax -8.79916 5.22687 -3.31409
lowerneck -16.685 -7.36384 -12.4634
upperneck -0.993927 -7.95624 11.3195
head 3.32011 -3.50055 4.85619
rclavicle -3.18055e-014 5.56597e-014
rhumerus 61.6224 5.60869 -67.0485
rradius 68.3004
rwrist -33.8797
rhand -41.3846 -11.9258
rfingers 7.12502
rthumb -14.3022 -41.4132
lclavicle -3.18055e-014 5.56597e-014
lhumerus 18.3993 -8.8971 60.5529
lradius 98.0121
lwrist -0.942851
lhand 0.529202 21.5063
lfingers 7.12502
lthumb 26.0972 49.7332
rfemur -12.0208 -27.3825 25.5894
rtibia 46.9349
rfoot -28.918 -26.3414
rtoes -9.24147
lfemur -55.255 -3.72606 -6.87886
ltibia 34.7982
lfoot 10.5435 -17.2589
ltoes -5.26286
255
root 6.86588 16.3867 -7.78922 -163.206 -147.316 -186.914
lowerback 21.1167 7.15751 7.06818
upperback 1.80062 11.2812 3.40849
thorax -9.05439 5.10328 -3.32077
lowerneck -16.5878 -7.7807 -12.7165
upperneck -1.33318 -8.4773 11.7132
head 3.29534 -3.74613 4.97194
rclavicle -1.25632e-013 -6.20208e-014
rhumerus 62.0411 4.63457 -67.7924
rradius 67.731
rwrist -33.5754
rhand -41.1672 -12.4137
rfingers 7.12502
rthumb -14.0927 -41.9158
lclavicle -1.25632e-013 -6.20208e-014
lhumerus 20.4604 -8.902 60.4066
lradius 96.8879
lwrist -0.609206
lhand 0.985651 21.5759
lfingers 7.12502
lthumb 26.5341 49.7376
rfemur -12.0535 -27.8101 25.2094
rtibia 48.2146
rfoot -28.5679 -25.7558
rtoes -9.04152
lfemur -55.9905 -4.04766 -7.90765
ltibia 36.0136
lfoot 9.74875 -17.8743
ltoes -4.07788
256
root 6.79325 16.3476 -7.71688 -163.442 -148.908 -186.472
lowerback 21.5169 6.95057 7.02741
upperback 1.79583 11.0376 3.39419
thorax -9.30227 4.97103 -3.31107
lowerneck -16.5 -8.20168 -12.977
upperneck -1.70967 -8.99726 12.0872
head 3.26303 -3.99247 5.08206
rclavicle 1.39944e-013 0
rhumerus 62.4362 3.61244 -68.5965
rradius 67.2761
rwrist -33.2637
rhand -40.8391 -12.948
rfingers 7.12502
rthumb -13.7766 -42.4718
lclavicle 1.39944e-013 0
lhumerus 22.542 -8.97428 60.3533
lradius 95.7655
lwrist -0.111934
lhand 1.39353 21.7297
lfingers 7.12502
lthumb 26.9244 49.8318
rfemur -12.0834 -28.2903 24.8884
rtibia 49.4899
rfoot -28.1843 -25.1767
rtoes -8.67663
lfemur -56.725 -4.42901 -8.92659
ltibia 37.2348
lfoot 9.03855 -18.4432
ltoes -2.73942
